# xmcd CD database generated by RipIT
#
# Track frame offsets:
# 150
# 21044
# 37109
# 63048
# 76430
# 94347
# 110387
# 123169
# 136338
# 150738
# 163817
# 174557
# 197569
# 212346
#
# Disc length: 3162 seconds
#
# Revision: 0
# Processed by: cddbd v1.5.2PL0 Copyright (c) Steve Scherf et al.
# Submitted via: RipIT 3.6.0 www.suwald.com/ripit/ripit.html on 2009-01-23 at 10:27
#
DISCID=b30c580e
DTITLE=Fleetwood Mac - Greatest Hits
DYEAR=1900
DGENRE=
TTITLE0=The green Manalishi
TTITLE1=Oh well - Pt.1
TTITLE2=Oh well - Pt.2
TTITLE3=Shake Your Money Maker
TTITLE4=Need Your Love so bad
TTITLE5=Rattle Snake Shake
TTITLE6=Dragonfly
TTITLE7=Black magic Woman
TTITLE8=Albatros
TTITLE9=Man of the World
TTITLE10=Stop messin' round
TTITLE11=Love that burns
TTITLE12=I'd rather go blind
TTITLE13=Just the Blues
EXTD=
EXTT0=
EXTT1=
EXTT2=
EXTT3=
EXTT4=
EXTT5=
EXTT6=
EXTT7=
EXTT8=
EXTT9=
EXTT10=
EXTT11=
EXTT12=
EXTT13=
PLAYORDER=
